<svg width="574" height="82" viewBox="0 0 574 82" fill="none" xmlns="http://www.w3.org/2000/svg">
<path d="M561.132 19.4051H559.199V18.0847H564.576V19.4051H562.643V24.8773H561.146V19.4051H561.132Z" fill="white"/>
<path d="M565.325 18.0711H567.584L569.15 22.5087H569.163L570.742 18.0711H573.002V24.8636H571.505V19.6501H571.491L569.708 24.8636H568.564L566.849 19.6501H566.836V24.8636H565.338V18.0711H565.325Z" fill="white"/>
<path d="M151.902 23.5011C155.523 27.1043 157.34 32.5425 157.34 39.8158V67.4625H137.35V43.2717C137.35 37.7129 135.373 34.9402 131.431 34.9402C129.186 34.9402 127.382 35.7171 125.993 37.2842C124.603 38.8514 123.922 41.316 123.922 44.6915V67.4625H103.932V18.9737H122.946V23.7556C124.83 21.8669 127.008 20.4471 129.493 19.4961C131.965 18.5451 134.651 18.0762 137.537 18.0762C143.484 18.0896 148.281 19.8979 151.902 23.5011Z" fill="white"/>
<path d="M207.113 23.8092C211.59 27.6267 213.835 33.4802 213.835 41.4098V67.4625H195.261V61.0866C192.963 65.9355 188.393 68.36 181.552 68.36C177.717 68.36 174.457 67.6902 171.784 66.3641C169.099 65.0381 167.068 63.2298 165.678 60.9527C164.288 58.6756 163.593 56.1172 163.593 53.2909C163.593 48.509 165.424 44.8657 169.072 42.3876C172.72 39.9096 178.265 38.6639 185.694 38.6639H193.738C193.083 34.8866 190.05 32.9846 184.625 32.9846C182.447 32.9846 180.229 33.3194 177.998 34.0026C175.753 34.6857 173.842 35.6099 172.252 36.7887L165.892 23.5815C168.658 21.867 172.011 20.5275 175.927 19.5497C179.842 18.5719 183.757 18.0897 187.645 18.0897C196.157 18.0897 202.637 20.0051 207.113 23.8092ZM191.386 55.1394C192.509 54.3759 193.337 53.2239 193.858 51.6836V48.3215H188.901C184.839 48.3215 182.795 49.6744 182.795 52.3935C182.795 53.5186 183.222 54.4429 184.077 55.1796C184.933 55.9163 186.095 56.2913 187.565 56.2913C188.995 56.2913 190.264 55.9163 191.386 55.1394Z" fill="white"/>
<path d="M300.541 23.5011C304.042 27.1043 305.805 32.5425 305.805 39.8159V67.4625H285.816V43.2717C285.816 37.7129 284.012 34.9402 280.418 34.9402C278.534 34.9402 277.01 35.6501 275.861 37.07C274.712 38.4898 274.137 40.7401 274.137 43.8075V67.4625H254.148V43.2717C254.148 37.7129 252.344 34.9402 248.75 34.9402C246.865 34.9402 245.342 35.6501 244.193 37.07C243.044 38.4898 242.469 40.7401 242.469 43.8075V67.4625H222.507V18.9737H241.521V23.5011C245.115 19.8979 249.685 18.0897 255.23 18.0897C258.477 18.0897 261.39 18.6924 263.982 19.9113C266.574 21.1169 268.699 22.9653 270.343 25.4567C272.293 23.0993 274.645 21.2776 277.411 20.0051C280.177 18.7326 283.21 18.1031 286.524 18.1031C292.363 18.0897 297.027 19.8979 300.541 23.5011Z" fill="white"/>
<path d="M366.536 47.8795H332.93C333.638 49.7145 334.814 51.121 336.471 52.0854C338.115 53.0632 340.186 53.5454 342.658 53.5454C344.782 53.5454 346.56 53.2775 348.003 52.7418C349.446 52.206 351.022 51.2951 352.733 49.9958L363.169 60.5509C358.452 65.748 351.41 68.3466 342.03 68.3466C336.191 68.3466 331.06 67.275 326.65 65.1051C322.227 62.9485 318.807 59.9481 316.388 56.1038C313.97 52.2595 312.767 47.9464 312.767 43.1645C312.767 38.3157 313.956 33.9892 316.348 30.1851C318.74 26.381 322 23.4074 326.169 21.2776C330.325 19.1478 335.001 18.0897 340.186 18.0897C345.076 18.0897 349.539 19.0675 353.588 21.0097C357.623 22.9653 360.844 25.8318 363.222 29.6091C365.614 33.3864 366.803 37.9138 366.803 43.1645C366.803 43.4726 366.723 45.0398 366.536 47.8795ZM335.242 33.4266C333.879 34.5517 332.997 36.1457 332.583 38.2085H348.15C347.735 36.1993 346.854 34.6187 345.491 33.4668C344.128 32.3148 342.431 31.7389 340.36 31.7389C338.302 31.7389 336.591 32.3014 335.242 33.4266Z" fill="white"/>
<path d="M373.083 1.69455H393.073V67.4625H373.083V1.69455Z" fill="white"/>
<path d="M453.108 47.8795H419.503C420.211 49.7145 421.387 51.121 423.044 52.0854C424.687 53.0632 426.758 53.5454 429.23 53.5454C431.355 53.5454 433.132 53.2775 434.575 52.7418C436.018 52.206 437.595 51.2951 439.305 49.9958L449.741 60.5509C445.024 65.748 437.983 68.3466 428.602 68.3466C422.763 68.3466 417.632 67.275 413.223 65.1051C408.813 62.9351 405.379 59.9481 402.961 56.1038C400.542 52.2595 399.34 47.9464 399.34 43.1645C399.34 38.3157 400.529 33.9892 402.921 30.1851C405.312 26.381 408.586 23.4074 412.742 21.2776C416.897 19.1478 421.574 18.0897 426.758 18.0897C431.649 18.0897 436.112 19.0675 440.161 21.0097C444.196 22.9653 447.416 25.8318 449.795 29.6091C452.186 33.3864 453.376 37.9138 453.376 43.1645C453.376 43.4726 453.282 45.0398 453.108 47.8795ZM421.801 33.4266C420.438 34.5517 419.556 36.1457 419.142 38.2085H434.709C434.295 36.1993 433.413 34.6187 432.05 33.4668C430.687 32.3148 428.99 31.7389 426.919 31.7389C424.874 31.7389 423.164 32.3014 421.801 33.4266Z" fill="white"/>
<path d="M466.363 67.0205C462.355 66.1364 459.108 64.9845 456.636 63.5646L462.114 50.3575C464.359 51.7237 467.005 52.7819 470.078 53.5454C473.138 54.3089 476.118 54.6974 479.004 54.6974C481.302 54.6974 482.906 54.5098 483.828 54.1214C484.736 53.7329 485.204 53.157 485.204 52.3935C485.204 51.63 484.629 51.0942 483.48 50.7995C482.331 50.5048 480.46 50.2101 477.868 49.9155C473.913 49.4466 470.559 48.8439 467.793 48.0938C465.027 47.3571 462.595 45.9238 460.498 43.7941C458.4 41.6643 457.357 38.6237 457.357 34.6589C457.357 31.5245 458.306 28.725 460.19 26.2336C462.074 23.7556 464.894 21.7732 468.635 20.2998C472.376 18.8264 476.866 18.0897 482.117 18.0897C485.765 18.0897 489.346 18.4245 492.86 19.1077C496.361 19.7908 499.354 20.782 501.84 22.0813L496.361 35.2884C492.112 32.931 487.462 31.7389 482.385 31.7389C478.015 31.7389 475.837 32.5024 475.837 34.0427C475.837 34.8062 476.425 35.3554 477.601 35.6769C478.777 35.9984 480.634 36.3064 483.173 36.6011C487.128 37.0699 490.469 37.6995 493.208 38.463C495.947 39.2265 498.366 40.6731 500.463 42.8029C502.561 44.9326 503.603 47.9732 503.603 51.9381C503.603 54.9519 502.655 57.6978 500.771 60.1758C498.887 62.6538 496.054 64.6362 492.286 66.1096C488.518 67.5831 483.948 68.3198 478.576 68.3198C474.447 68.3466 470.372 67.9045 466.363 67.0205Z" fill="white"/>
<path d="M516.324 67.0205C512.315 66.1364 509.068 64.9845 506.596 63.5646L512.075 50.3575C514.32 51.7237 516.965 52.7819 520.039 53.5454C523.099 54.3089 526.078 54.6974 528.965 54.6974C531.263 54.6974 532.866 54.5098 533.788 54.1214C534.697 53.7329 535.165 53.157 535.165 52.3935C535.165 51.63 534.59 51.0942 533.441 50.7995C532.292 50.5048 530.421 50.2101 527.829 49.9155C523.874 49.4466 520.52 48.8439 517.754 48.0938C514.988 47.3571 512.556 45.9238 510.458 43.7941C508.36 41.6643 507.318 38.6237 507.318 34.6589C507.318 31.5245 508.267 28.725 510.151 26.2336C512.035 23.7556 514.854 21.7732 518.596 20.2998C522.337 18.8264 526.827 18.0897 532.078 18.0897C535.726 18.0897 539.307 18.4245 542.821 19.1077C546.322 19.7908 549.315 20.782 551.8 22.0813L546.322 35.2884C542.073 32.931 537.423 31.7389 532.345 31.7389C527.976 31.7389 525.798 32.5024 525.798 34.0427C525.798 34.8062 526.386 35.3554 527.562 35.6769C528.737 35.9984 530.595 36.3064 533.133 36.6011C537.089 37.0699 540.429 37.6995 543.168 38.463C545.908 39.2265 548.326 40.6731 550.424 42.8029C552.522 44.9326 553.564 47.9732 553.564 51.9381C553.564 54.9519 552.615 57.6978 550.731 60.1758C548.847 62.6538 546.014 64.6362 542.246 66.1096C538.478 67.5831 533.908 68.3198 528.537 68.3198C524.408 68.3466 520.333 67.9045 516.324 67.0205Z" fill="white"/>
<path fill-rule="evenodd" clip-rule="evenodd" d="M24.6966 77.4826C29.8169 79.1483 36.2664 80.1001 42.3959 80.1001C48.5255 80.1001 54.9832 79.1483 60.0952 77.4908C69.7859 74.3398 76.9494 67.4882 80.806 57.6826C84.3671 48.6319 83.8994 37.8253 79.4028 25.558C75.8088 15.7524 70.4998 7.47307 67.6607 3.41133C66.7909 2.1641 65.3057 1.49124 63.7959 1.65535C62.2861 1.81946 60.9732 2.80413 60.3906 4.20727L54.2365 18.969L46.0638 3.94469C45.3335 2.59899 43.9222 1.76203 42.3959 1.76203C40.8697 1.76203 39.4584 2.59899 38.7281 3.94469L30.5554 18.969L24.4012 4.20727C23.8186 2.79592 22.514 1.81946 20.9959 1.65535C19.4861 1.49124 18.0009 2.1641 17.1311 3.41133C14.292 7.47307 8.98306 15.7524 5.38904 25.5498C0.900623 37.8171 0.424702 48.6237 3.9859 57.6744C7.8507 67.48 15.0141 74.3316 24.6966 77.4826ZM18.9692 16.3268C19.8472 15.0303 21.9478 15.2027 22.5878 16.6058L27.0598 26.4196C27.6588 27.7407 28.9799 28.7254 30.5308 28.8402C32.1636 28.9551 33.6488 28.2166 34.4202 26.9119L40.5989 16.4909C41.3784 15.1863 43.4216 15.1863 44.2011 16.4909L50.3799 26.9119C51.1594 28.2248 52.6692 28.9715 54.3103 28.8402C55.853 28.7172 57.1577 27.7325 57.7567 26.4196L62.2123 16.6058C62.8441 15.2027 64.9529 15.0386 65.8309 16.3268C71.7799 25.0329 81.6511 42.7486 75.4806 57.1247C72.1984 64.7722 66.3807 69.8924 58.1833 72.3377C53.6457 73.6834 47.8936 74.4629 42.3959 74.4629C36.8982 74.4629 31.1462 73.6916 26.6085 72.3377C18.4112 69.8924 12.5935 64.7722 9.31128 57.1247C3.14073 42.7404 13.0202 25.0329 18.9692 16.3268ZM31.0804 44.2584C40.1393 42.166 58.4458 43.2081 67.0042 46.0636C71.2874 47.4914 69.5971 60.8664 65.5764 59.9474C55.8118 57.7483 39.8767 56.7062 19.7896 58.3227C14.6693 58.7412 12.0928 50.0433 15.0632 47.0237C18.1485 43.8974 22.0543 41.8378 26.5674 40.9516C29.2436 40.4261 30.1831 42.3862 31.0421 44.1786C31.0549 44.2053 31.0677 44.2319 31.0804 44.2584Z" fill="url(#paint0_radial_859_65)"/>
<defs>
<radialGradient id="paint0_radial_859_65" cx="0" cy="0" r="1" gradientUnits="userSpaceOnUse" gradientTransform="translate(86.8382 -13.6577) rotate(138.34) scale(183.081 186.182)">
<stop offset="0.0319" stop-color="#FFD600"/>
<stop offset="0.367122" stop-color="#FF0096"/>
<stop offset="0.722483" stop-color="#B803D1"/>
<stop offset="1" stop-color="#512FDC"/>
</radialGradient>
</defs>
</svg>
